# xmcd
#
# Track frame offsets: 
#        150
#        12175
#        25897
#        38662
#        49857
#        61597
#        73174
#        84827
#        97059
#        105709
#        115689
#        127742
#        139179
#        153362
#        164147
#        175599
#        187502
#        200347
#        212407
#        222842
#        235954
#
# Disc length: 3324 seconds
#
# Revision: 0
# Processed by: cddbd v1.5.1PL0 Copyright (c) Steve Scherf et al.
# Submitted via: ExactAudioCopy v0.95b3
#
DISCID=0f0cfa15
DTITLE=Various Artist - Rhythm And Blues [CD2)
DYEAR=1990
DGENRE=Blues
TTITLE0=Joe Turner - The Chicken And The Hawk (Leiber - Stoller)
TTITLE1=Ray Charles - A Fool For You (R. Charles)
TTITLE2=T-Bone Walker - Hypin' Women Blues (Traditional)
TTITLE3=Dinah Washington - Fat Daddy (Sanfords - Medley)
TTITLE4=The Cookies - In Paradise (E. Floyd)
TTITLE5=Ray Charles - This Little Girl Of Mine (R. Charles)
TTITLE6=Ray Charles - Lonely Avenue (Pomus)
TTITLE7=Dinah Washington - Dream (J. Mercer)
TTITLE8=Joe Turner - Love Roller Coaster (Pomus - Shuman - Turner)
TTITLE9=La Vern Baker - Jim Dandy (Chase)
TTITLE10=Earl Bostic - Wher Or When? (Livingston - Evans)
TTITLE11=Ray Charles - Hallelujah, I Love Her So (R. Charles)
TTITLE12=Tina Turner - I'm Looking For My Mind (T. Turner)
TTITLE13=T-Bone Walker - Lonesome Woman Blues (P. Reiner)
TTITLE14=Ruth Brown - Wild Wild Young Men (A. Nugetre)
TTITLE15=Louis Jordan - If I Had Any Sense I'd Go Back Home (R. McCoy)
TTITLE16=Ray Charles - Greenbacks (Richard)
TTITLE17=Joe Turner - Honey Hush (Turner)
TTITLE18=Wynonie Harris - Shake That Thing (W. Harris)
TTITLE19=Ray Charles - I Got A Woman (R. Charles)
TTITLE20=Roy Brown - I've Got The Last Laugh Now (R. Brown)
EXTD=
EXTT0=
EXTT1=
EXTT2=
EXTT3=
EXTT4=
EXTT5=
EXTT6=
EXTT7=
EXTT8=
EXTT9=
EXTT10=
EXTT11=
EXTT12=
EXTT13=
EXTT14=
EXTT15=
EXTT16=
EXTT17=
EXTT18=
EXTT19=
EXTT20=
PLAYORDER=
